<?xml version="1.0" encoding="UTF-8"?>
<svg id="Camada_1" xmlns="http://www.w3.org/2000/svg" version="1.1" viewBox="0 0 306 298">
  <!-- Generator: Adobe Illustrator 30.0.0, SVG Export Plug-In . SVG Version: 2.1.1 Build 123)  -->
  <defs>
    <style>
      .st0 {
        fill: #010101;
      }
    </style>
  </defs>
  <path class="st0" d="M194.61,156c-4.18-1.54-11.34,1.29-14.06-1.45-3.16-3.19-1.37-8.05-2.06-11.93-6.67-37.29-37.83-63.01-76.25-59.49-13.16,1.21-29.33,8.08-37.41,18.39,18.36,14.85,41.15,21.35,64.29,24.48,3.11.42.42-1.53-.8-2.21-11.49-6.33-26.15-7.12-36.23-16.77-.81-.78-2.82-2.3,0-2.01,3.25,3.32,8.04,4.32,12.52,3.99-.23-2.63.51-5.79-.22-8.29-1.14-3.97-5.91-2.26-5.79-5.7,33.09-8.71,65.56,13.53,73.7,45.79,2.35,9.33,2.1,19.09,4.59,28.41,4.75,17.8,17.94,30.93,30.71,43.29l-45.99-10.01c13.8,25.02,46.89,23.18,62.99,46.01-6.27-.11-12.43-2.59-18.61-3.39-55.16-7.15-74.25,22.77-115.44,45.32-1.77.97-5.31,3.11-6.93,2.07,14.64-22.2,36.23-38.65,60.32-49.68l32.67-11.82c-29.96-.52-56.53,12.27-80.31,29.18-13.15,9.35-24.7,20.98-37.79,30.21-1.53,1.08-12.11,8.33-12.89,7.6,14.6-24.39,35.2-45.05,59.08-60.41l28.92-15.57c-38.94,3.35-64.81,33.79-92.99,56.99,1.95-11.92,9.35-20.65,17.46-29.03,1.37-1.41,3.4-2.15,4.54-3.46,4.36-5,2.75-11.41,2.98-17.51-.56-.59-8.7,2.67-10.25,3.25-4.31,1.61-14.25,6.98-17.49,7.57-1.13.21-2.31.49-3.33-.24l.91-59.92-2.14-1.51-13.72,4.34,25.02-94.49c2.14-1.56,8.16,9.43,11.96,7.55,2.94-2.74,5.54-5.87,8.55-8.53,7.76-6.83,9.94-3.54,3.9-16.05,44.15-21.67,101.17-3.44,120.06,43.04,1.6,3.94,5.52,15.8,5.52,19.48v22.5h.01ZM111.25,101.15c-4.71,1.58,1.41,15.03,6.43,11.43,2.27-6.05,2.19-14.32-6.43-11.43ZM130.35,106.18c-6.12,1.18-4.41,10.84-.24,10.85,3.63,0,7.83-12.32.24-10.85ZM135.61,139c-21.43-2.24-43.9-8.56-63.02-18.48-3.47-1.8-19.82-13.29-21.94-11.49l-17.03,58.96c.5.53,3.49-.78,4.07-1.67,2.77-4.27,4.21-22.28,7.42-25.33,9.48-2.27,22.08-10.24,31.77-8.75,5.27.81,13.5,5.07,19.3,6.7,13.09,3.67,24.52,6.03,37.97,2.09,1.46-.43,1.76.57,1.46-2.02h0ZM141.92,119.31c-.98,1.09-1.16,3.06-2.29,4.2.29,5.65,14.34-7.89,5.7-6.29-.58.11-2.95,1.58-3.41,2.09ZM84.61,140.99h-2.99c1.87,12.06-26.28,14.8-29.27,21.24l-3.73,62.76c1.53,1.61,20.71-8.22,23.67-9.82,4.74-2.57,29.08-17.31,30.12-20.88l1.13-44.66c-.76-2.67-6.35-1.76-7.95-.15-3.44,3.48,1.9,32.39-2.77,40.23-3.4,5.7-21.36,13.36-27.2,18.29.54-8.87,2.03-17.68,2.98-26.51.7-6.49-1.46-14.52,4.5-19.5,2.96-2.47,8.48-3.22,10.4-6.6,2.24-3.95.67-9.94,1.11-14.39h0ZM171.6,190.01l-39.99-22.01c5.23,12.7,23.2,22.6,36.46,23.04,1.11.04,3.79.64,3.52-1.03h.01Z"/>
  <path class="st0" d="M238.11,96c4.08.87,5.15,7.53,6.01,10.99,1.14,4.58,5.9,35.06,4.48,37.01-11.71-8.04-24.65-13.41-38.73-15.78-1.93-.32-1.21.03-1.26,1.76,11.48,4.25,34.32,15.44,40.84,25.68,2.17,3.4,2.58,7.38,5.17,10.83,8.62,11.52,26.86,12.29,38.99,6.51-2.64,6.94-8.51,12.86-14.69,16.8-22.06,14.1-53.61,8.68-69.13-12.48-10.83-14.76-5.89-27.85-8.29-44.71-8.23-57.79-65.69-89.91-120.64-74.88-6.32,1.73-12.36,5.1-18.51,6.12-13.77-15.77-29.83-30.65-50.72-35.87C33.47,9.55,66.43,1.79,94.67,2.45l10.95,40.53-1.85-41.85c1.05-1.66,18.78.53,22.22.99,4.28.58,26.62,4.29,28.17,6.84.9,5.49-3.08,11.56-4.79,17.26-1.14,3.81-2.19,7.82-2.73,11.76,4.11-1.62,14.18-24.78,15.63-25.08,14.02,3.32,25.69,13.11,37.36,21.1-7.41,8.43-18.12,14.48-26.03,22.45-1.52,1.53-6.92,7.67-7.79,9.22-1,1.76-1.69,1.78.34,3.32,2.99.42,32.22-26.63,39.07-27.03,1.96-.11,2.21.62,3.47,1.47,2.7,1.83,11,12.42,13.36,15.64,6.32,8.63,11.89,18.22,15.51,28.31l-20.92,8.6c6.21.9,15.77-1.23,21.5,0l-.03.02ZM74.6,38c-1.18-5.9-4.18-12.15-8.98-16,1.38,5.7,4.26,12.3,8.98,16Z"/>
  <path class="st0" d="M217.61,289.99c-33.65-10.89-67.34-6.74-98.99,8.01-1.09-1.06,4.05-5.68,4.98-6.51,23.76-21.5,73.44-32.07,94.01-1.5h0Z"/>
  <path class="st0" d="M245.61,272.99c-26.41-9.35-53.93-11.93-81.79-9.27-1.1.1-3.41,1.18-3.2-.7,26.5-11.17,67.99-20.26,84.99,9.98h0Z"/>
</svg>